<?xml version="1.0" encoding="UTF-8" standalone="no"?>
<svg xmlns:inkscape="http://www.inkscape.org/namespaces/inkscape" xmlns:sodipodi="http://sodipodi.sourceforge.net/DTD/sodipodi-0.dtd" xmlns="http://www.w3.org/2000/svg" xmlns:svg="http://www.w3.org/2000/svg" width="29.238697mm" height="32.561806mm" viewBox="0 0 29.238697 32.561806" version="1.1" id="svg1">
  <defs id="defs1">
    <rect x="190.91882" y="284.61047" width="152.73508" height="49.851028" id="rect8"></rect>
    <linearGradient id="swatch14">
      <stop style="stop-color:#ed6e46;stop-opacity:1;" offset="0" id="stop15"></stop>
    </linearGradient>
    <linearGradient id="swatch13">
      <stop style="stop-color:#ed6e4c;stop-opacity:1;" offset="0" id="stop14"></stop>
    </linearGradient>
  </defs>
  <g id="g8-8-6" transform="translate(-111.74908,-108.70757)">
    <text xml:space="preserve" transform="matrix(0.33628349,0,0,0.33628349,78.086888,29.76298)" id="text5" style="font-size:14.6667px;line-height:1.15;font-family:Arial;-inkscape-font-specification:Arial;letter-spacing:0px;word-spacing:-0.07px;writing-mode:lr-tb;direction:ltr;white-space:pre;shape-inside:url(#rect8);display:none;opacity:1;fill:#4d4d4d;fill-rule:evenodd;stroke-width:2.64567;stroke-linejoin:round">
      <tspan x="190.91797" y="297.08909" id="tspan7">
        <tspan dx="0 0 0 0 0 0 0 0 0 0 0.070001908 -0.070003986 0 0 0 0 0 0 0 0.070003338" id="tspan6">enterprise systems, </tspan>
      </tspan>
      <tspan x="190.91797" y="313.95579" id="tspan9">
        <tspan dx="0 0 0 0 0 0 0 0 0 0.069997139 -0.070000172 0.070002861" id="tspan8">platforms &amp; </tspan>
      </tspan>
      <tspan x="190.91797" y="330.82249" id="tspan10">architectures</tspan>
    </text>
    <path id="text8-1-0-7-1-4-8-2-6-9-4-3-8-1-2-1" style="font-size:46.6601px;line-height:1.15;font-family:Yaahowu;-inkscape-font-specification:Yaahowu;letter-spacing:-1.42081px;word-spacing:-0.0170115px;display:inline;opacity:0.35;fill:#ed6e46;fill-rule:evenodd;stroke-width:0.741921;stroke-linejoin:round" d="m 122.61978,125.91659 v 14.43907 c 0,1.17947 1.84375,1.19488 1.84375,-4e-4 l 2.5e-4,-14.43867 14.67984,-3.6e-4 v 14.43943 c 0,1.18522 1.84416,1.25099 1.84416,-4e-4 v -14.43903 -1.8345 -9.04501 c 0,-1.14651 -10e-4,-6.293 -9.184,-6.293 -9.18285,0 -9.184,5.29189 -9.184,6.293 v 9.02611 z m 16.524,-10.87987 -1.6e-4,9.04501 -14.67984,-0.019 -2.5e-4,-9.02601 c -1.7e-4,-6.01822 14.68036,-6.04872 14.68025,0 z"></path>
    <path d="m 121.09633,110.58702 c -0.70912,0.008 -1.50131,-0.0747 -1.47851,1.23577 0.0207,1.19072 -0.16376,3.61011 -0.098,8.63311 l 1e-5,1.6954 c 0,0.62128 -0.19595,1.90484 0.68669,1.92137 0.0416,-0.0262 8.95586,-0.0303 9.05487,-8e-5 8.30979,-0.14429 6.9531,-13.48661 0.43045,-13.48457 0,0 -4.18055,-0.0508 -8.59553,-0.001 z m -1.57648,29.352 c 0,1.74272 -1.81972,1.72251 -1.81972,0.0184 v -19.50356 c 0,-0.1913 8.4e-4,-8.40058 0.0879,-9.41714 0.1126,-1.31482 0.65182,-2.27436 1.62519,-2.293 4.11362,-0.0788 5.87748,-0.005 9.47512,0 6.36502,0.01 7.7852,5.97856 7.82977,8.72654 0.0446,2.74798 -1.35206,8.43524 -7.45669,8.44641 l -9.05487,-8e-5 c -0.61366,-1e-5 -0.68669,0.2784 -0.68669,1.41751" style="font-size:46.6601px;line-height:1.15;font-family:Yaahowu;-inkscape-font-specification:Yaahowu;letter-spacing:-1.42081px;word-spacing:-0.0170115px;display:inline;opacity:0.65;fill:#ed6e46;fill-rule:evenodd;stroke-width:0.676166;stroke-linejoin:round" id="path1-4-5-9"></path>
    <path d="m 129.66602,139.40303 c 0.75044,0 1.00255,0.56722 1.00255,1.00593 0,0.43872 -0.28386,0.83806 -0.98705,0.83806 -0.70319,0 -14.04179,-0.0139 -14.04179,-0.0139 -1.75046,-0.002 -3.89031,-0.49641 -3.89035,-3.64308 l -3e-4,-24.13341 c -4e-5,-3.41892 1.70636,-4.71302 4.0679,-4.71296 l 13.15315,3.2e-4 c 0.66965,0 1.69567,0.0313 1.69567,0.96668 0,0.93539 -0.92068,0.87907 -1.69567,0.87735 -0.77499,-0.002 -12.08179,0 -13.1095,0 -1.52228,0 -2.26755,1.11349 -2.26755,2.78479 v 10.69986 h 13.78954 c 1.50202,0 1.9924,0.25814 1.9924,0.922 0,0.66386 -0.49702,0.92196 -1.9924,0.922 h -13.78954 v 11.68208 c 0,0.83197 0.63357,1.80427 1.84361,1.80427 l 14.22933,-1e-5 z" style="font-size:46.6601px;line-height:1.15;font-family:Yaahowu;-inkscape-font-specification:Yaahowu;letter-spacing:-1.42081px;word-spacing:-0.0170115px;display:inline;fill:#ed6e46;fill-rule:evenodd;stroke-width:0.7;stroke-linejoin:round" id="path1-1-2-4-8"></path>
  </g>
</svg>
